<svg width="1440" height="1755" viewBox="0 0 1440 1755" fill="none" xmlns="http://www.w3.org/2000/svg">
<g clip-path="url(#clip0)">
<rect x="1458.46" y="74" width="78.7179" height="81.3639" rx="14" transform="rotate(60 1458.46 74)" fill="#B1DAFF"/>
<rect x="539" y="783.955" width="263.91" height="263.91" rx="43" transform="rotate(-30 539 783.955)" fill="#B1DAFF"/>
<circle cx="762" cy="951" r="53" fill="#FFF6C5"/>
<rect x="47" y="1618.28" width="150.558" height="155.619" rx="24" transform="rotate(-30 47 1618.28)" fill="#B1DAFF"/>
<circle cx="157.392" cy="1430.61" r="4.60841" transform="rotate(90 157.392 1430.61)" fill="#70C3A0"/>
<circle cx="157.392" cy="1478.54" r="4.60841" transform="rotate(90 157.392 1478.54)" fill="#70C3A0"/>
<circle cx="157.392" cy="1526.46" r="4.60841" transform="rotate(90 157.392 1526.46)" fill="#70C3A0"/>
<circle cx="157.392" cy="1574.39" r="4.60841" transform="rotate(90 157.392 1574.39)" fill="#70C3A0"/>
<circle cx="157.392" cy="1622.32" r="4.60841" transform="rotate(90 157.392 1622.32)" fill="#70C3A0"/>
<circle cx="157.392" cy="1670.24" r="4.60841" transform="rotate(90 157.392 1670.24)" fill="#70C3A0"/>
<circle cx="157.392" cy="1718.17" r="4.60841" transform="rotate(90 157.392 1718.17)" fill="#70C3A0"/>
<circle cx="109.464" cy="1430.61" r="4.60841" transform="rotate(90 109.464 1430.61)" fill="#70C3A0"/>
<circle cx="109.464" cy="1478.54" r="4.60841" transform="rotate(90 109.464 1478.54)" fill="#70C3A0"/>
<circle cx="109.464" cy="1526.46" r="4.60841" transform="rotate(90 109.464 1526.46)" fill="#70C3A0"/>
<circle cx="109.464" cy="1574.39" r="4.60841" transform="rotate(90 109.464 1574.39)" fill="#70C3A0"/>
<circle cx="109.464" cy="1622.32" r="4.60841" transform="rotate(90 109.464 1622.32)" fill="#70C3A0"/>
<circle cx="109.464" cy="1670.24" r="4.60841" transform="rotate(90 109.464 1670.24)" fill="#70C3A0"/>
<circle cx="109.464" cy="1718.17" r="4.60841" transform="rotate(90 109.464 1718.17)" fill="#70C3A0"/>
<circle cx="61.5371" cy="1430.61" r="4.60841" transform="rotate(90 61.5371 1430.61)" fill="#70C3A0"/>
<circle cx="61.5371" cy="1478.54" r="4.60841" transform="rotate(90 61.5371 1478.54)" fill="#70C3A0"/>
<circle cx="61.5371" cy="1526.46" r="4.60841" transform="rotate(90 61.5371 1526.46)" fill="#70C3A0"/>
<circle cx="61.5371" cy="1574.39" r="4.60841" transform="rotate(90 61.5371 1574.39)" fill="#70C3A0"/>
<circle cx="61.5371" cy="1622.32" r="4.60841" transform="rotate(90 61.5371 1622.32)" fill="#70C3A0"/>
<circle cx="61.5371" cy="1670.24" r="4.60841" transform="rotate(90 61.5371 1670.24)" fill="#70C3A0"/>
<circle cx="61.5371" cy="1718.17" r="4.60841" transform="rotate(90 61.5371 1718.17)" fill="#70C3A0"/>
<circle cx="13.6084" cy="1430.61" r="4.60841" transform="rotate(90 13.6084 1430.61)" fill="#70C3A0"/>
<circle cx="13.6084" cy="1478.54" r="4.60841" transform="rotate(90 13.6084 1478.54)" fill="#70C3A0"/>
<circle cx="13.6084" cy="1526.46" r="4.60841" transform="rotate(90 13.6084 1526.46)" fill="#70C3A0"/>
<circle cx="13.6084" cy="1574.39" r="4.60841" transform="rotate(90 13.6084 1574.39)" fill="#70C3A0"/>
<circle cx="13.6084" cy="1622.32" r="4.60841" transform="rotate(90 13.6084 1622.32)" fill="#70C3A0"/>
<circle cx="13.6084" cy="1670.24" r="4.60841" transform="rotate(90 13.6084 1670.24)" fill="#70C3A0"/>
<circle cx="13.6084" cy="1718.17" r="4.60841" transform="rotate(90 13.6084 1718.17)" fill="#70C3A0"/>
<rect x="1174" y="1539.96" width="263.91" height="263.91" rx="43" transform="rotate(-30 1174 1539.96)" fill="#ACE3CC"/>
<path d="M721.999 1508C752.758 1542.73 716.083 1556.94 633 1499C568.083 1440.94 517 1539 603 1586C718.418 1649.08 743.382 1644 766 1644C788.618 1644 846.638 1598.77 813.999 1515C783.999 1438 995.999 1515 806.999 1390C706.948 1323.83 574.999 1342 721.999 1508Z" fill="#FFF6C5"/>
<circle cx="1264" cy="1680" r="53" fill="#FFF6C5"/>
<circle cx="43" cy="854" r="53" fill="#ACE3CC"/>
<rect x="566.402" y="731.451" width="3.39812" height="3.39812" rx="1" transform="rotate(45 566.402 731.451)" fill="#F63A51"/>
<rect x="566.628" y="755.969" width="3.39812" height="3.39812" rx="1" transform="rotate(45 566.628 755.969)" fill="#F63A51"/>
<rect x="566.854" y="780.487" width="3.39812" height="3.39812" rx="1" transform="rotate(45 566.854 780.487)" fill="#F63A51"/>
<rect x="567.079" y="805.005" width="3.39812" height="3.39812" rx="1" transform="rotate(45 567.079 805.005)" fill="#F63A51"/>
<rect x="567.305" y="829.523" width="3.39812" height="3.39812" rx="1" transform="rotate(45 567.305 829.523)" fill="#F63A51"/>
<rect x="567.53" y="854.041" width="3.39812" height="3.39812" rx="1" transform="rotate(45 567.53 854.041)" fill="#F63A51"/>
<rect x="567.755" y="878.558" width="3.39812" height="3.39812" rx="1" transform="rotate(45 567.755 878.558)" fill="#F63A51"/>
<rect x="578.417" y="745.456" width="3.39812" height="3.39812" rx="1" transform="rotate(45 578.417 745.456)" fill="#F63A51"/>
<rect x="578.643" y="769.974" width="3.39812" height="3.39812" rx="1" transform="rotate(45 578.643 769.974)" fill="#F63A51"/>
<rect x="578.868" y="794.492" width="3.39812" height="3.39812" rx="1" transform="rotate(45 578.868 794.492)" fill="#F63A51"/>
<rect x="579.094" y="819.009" width="3.39812" height="3.39812" rx="1" transform="rotate(45 579.094 819.009)" fill="#F63A51"/>
<rect x="579.319" y="843.527" width="3.39812" height="3.39812" rx="1" transform="rotate(45 579.319 843.527)" fill="#F63A51"/>
<rect x="579.545" y="868.045" width="3.39812" height="3.39812" rx="1" transform="rotate(45 579.545 868.045)" fill="#F63A51"/>
<rect x="579.77" y="892.563" width="3.39812" height="3.39812" rx="1" transform="rotate(45 579.77 892.563)" fill="#F63A51"/>
<rect x="590.244" y="731" width="3.39812" height="3.39812" rx="1" transform="rotate(45 590.244 731)" fill="#F63A51"/>
<rect x="590.47" y="755.518" width="3.39812" height="3.39812" rx="1" transform="rotate(45 590.47 755.518)" fill="#F63A51"/>
<rect x="590.695" y="780.036" width="3.39812" height="3.39812" rx="1" transform="rotate(45 590.695 780.036)" fill="#F63A51"/>
<rect x="590.921" y="804.554" width="3.39812" height="3.39812" rx="1" transform="rotate(45 590.921 804.554)" fill="#F63A51"/>
<rect x="591.146" y="829.072" width="3.39812" height="3.39812" rx="1" transform="rotate(45 591.146 829.072)" fill="#F63A51"/>
<rect x="591.372" y="853.59" width="3.39812" height="3.39812" rx="1" transform="rotate(45 591.372 853.59)" fill="#F63A51"/>
<rect x="591.597" y="878.108" width="3.39812" height="3.39812" rx="1" transform="rotate(45 591.597 878.108)" fill="#F63A51"/>
<path d="M681.606 107.616C695.522 129.642 699.16 141.32 673.528 181.059C670.391 187.353 670.023 202.077 693.643 210.616C723.168 221.289 745.056 205.303 776.943 181.15C808.3 157.398 802.657 108.635 801.012 82.301C799.368 55.9674 723.929 32.6463 691.288 40.8169C658.646 48.9875 667.69 85.5895 681.606 107.616Z" fill="#FFDEDE"/>
<rect x="727" y="41.2672" width="78.5345" height="81.1743" rx="14" transform="rotate(-30 727 41.2672)" fill="#ACE3CC"/>
<rect x="1187.63" y="1543.51" width="4.74242" height="4.74242" rx="1" transform="rotate(-45 1187.63 1543.51)" fill="#F63A51"/>
<rect x="1221.85" y="1543.2" width="4.74242" height="4.74242" rx="1" transform="rotate(-45 1221.85 1543.2)" fill="#F63A51"/>
<rect x="1256.06" y="1542.89" width="4.74242" height="4.74242" rx="1" transform="rotate(-45 1256.06 1542.89)" fill="#F63A51"/>
<rect x="1290.28" y="1542.57" width="4.74242" height="4.74242" rx="1" transform="rotate(-45 1290.28 1542.57)" fill="#F63A51"/>
<rect x="1324.5" y="1542.26" width="4.74242" height="4.74242" rx="1" transform="rotate(-45 1324.5 1542.26)" fill="#F63A51"/>
<rect x="1358.72" y="1541.94" width="4.74242" height="4.74242" rx="1" transform="rotate(-45 1358.72 1541.94)" fill="#F63A51"/>
<rect x="1392.93" y="1541.63" width="4.74242" height="4.74242" rx="1" transform="rotate(-45 1392.93 1541.63)" fill="#F63A51"/>
<rect x="1207.17" y="1526.75" width="4.74242" height="4.74242" rx="1" transform="rotate(-45 1207.17 1526.75)" fill="#F63A51"/>
<rect x="1241.39" y="1526.43" width="4.74242" height="4.74242" rx="1" transform="rotate(-45 1241.39 1526.43)" fill="#F63A51"/>
<rect x="1275.61" y="1526.12" width="4.74242" height="4.74242" rx="1" transform="rotate(-45 1275.61 1526.12)" fill="#F63A51"/>
<rect x="1309.83" y="1525.8" width="4.74242" height="4.74242" rx="1" transform="rotate(-45 1309.83 1525.8)" fill="#F63A51"/>
<rect x="1344.04" y="1525.49" width="4.74242" height="4.74242" rx="1" transform="rotate(-45 1344.04 1525.49)" fill="#F63A51"/>
<rect x="1378.26" y="1525.17" width="4.74242" height="4.74242" rx="1" transform="rotate(-45 1378.26 1525.17)" fill="#F63A51"/>
<rect x="1412.48" y="1524.86" width="4.74242" height="4.74242" rx="1" transform="rotate(-45 1412.48 1524.86)" fill="#F63A51"/>
<rect x="1187" y="1510.24" width="4.74242" height="4.74242" rx="1" transform="rotate(-45 1187 1510.24)" fill="#F63A51"/>
<rect x="1221.22" y="1509.93" width="4.74242" height="4.74242" rx="1" transform="rotate(-45 1221.22 1509.93)" fill="#F63A51"/>
<rect x="1255.43" y="1509.61" width="4.74242" height="4.74242" rx="1" transform="rotate(-45 1255.43 1509.61)" fill="#F63A51"/>
<rect x="1289.65" y="1509.3" width="4.74242" height="4.74242" rx="1" transform="rotate(-45 1289.65 1509.3)" fill="#F63A51"/>
<rect x="1323.87" y="1508.98" width="4.74242" height="4.74242" rx="1" transform="rotate(-45 1323.87 1508.98)" fill="#F63A51"/>
<rect x="1358.09" y="1508.67" width="4.74242" height="4.74242" rx="1" transform="rotate(-45 1358.09 1508.67)" fill="#F63A51"/>
<rect x="1392.3" y="1508.35" width="4.74242" height="4.74242" rx="1" transform="rotate(-45 1392.3 1508.35)" fill="#F63A51"/>
<circle cx="726.5" cy="1470.5" r="52.5" fill="#FFDEDE"/>
<rect x="1306" y="817.569" width="149.137" height="154.15" rx="11" transform="rotate(-30 1306 817.569)" fill="#FFDEDE"/>
<circle cx="1424.08" cy="209.946" r="1.73745" transform="rotate(-180 1424.08 209.946)" fill="#5185EA"/>
<circle cx="1406.02" cy="209.946" r="1.73745" transform="rotate(-180 1406.02 209.946)" fill="#5185EA"/>
<circle cx="1387.95" cy="209.946" r="1.73745" transform="rotate(-180 1387.95 209.946)" fill="#5185EA"/>
<circle cx="1369.88" cy="209.946" r="1.73745" transform="rotate(-180 1369.88 209.946)" fill="#5185EA"/>
<circle cx="1351.81" cy="209.946" r="1.73745" transform="rotate(-180 1351.81 209.946)" fill="#5185EA"/>
<circle cx="1333.74" cy="209.946" r="1.73745" transform="rotate(-180 1333.74 209.946)" fill="#5185EA"/>
<circle cx="1424.08" cy="191.877" r="1.73745" transform="rotate(-180 1424.08 191.877)" fill="#5185EA"/>
<circle cx="1406.02" cy="191.877" r="1.73745" transform="rotate(-180 1406.02 191.877)" fill="#5185EA"/>
<circle cx="1387.95" cy="191.877" r="1.73745" transform="rotate(-180 1387.95 191.877)" fill="#5185EA"/>
<circle cx="1369.88" cy="191.877" r="1.73745" transform="rotate(-180 1369.88 191.877)" fill="#5185EA"/>
<circle cx="1351.81" cy="191.877" r="1.73745" transform="rotate(-180 1351.81 191.877)" fill="#5185EA"/>
<circle cx="1333.74" cy="191.877" r="1.73745" transform="rotate(-180 1333.74 191.877)" fill="#5185EA"/>
<circle cx="1424.08" cy="173.807" r="1.73745" transform="rotate(-180 1424.08 173.807)" fill="#5185EA"/>
<circle cx="1406.02" cy="173.807" r="1.73745" transform="rotate(-180 1406.02 173.807)" fill="#5185EA"/>
<circle cx="1387.95" cy="173.807" r="1.73745" transform="rotate(-180 1387.95 173.807)" fill="#5185EA"/>
<circle cx="1369.88" cy="173.807" r="1.73745" transform="rotate(-180 1369.88 173.807)" fill="#5185EA"/>
<circle cx="1351.81" cy="173.807" r="1.73745" transform="rotate(-180 1351.81 173.807)" fill="#5185EA"/>
<circle cx="1333.74" cy="173.807" r="1.73745" transform="rotate(-180 1333.74 173.807)" fill="#5185EA"/>
<circle cx="1424.08" cy="155.737" r="1.73745" transform="rotate(-180 1424.08 155.737)" fill="#5185EA"/>
<circle cx="1406.02" cy="155.737" r="1.73745" transform="rotate(-180 1406.02 155.737)" fill="#5185EA"/>
<circle cx="1387.95" cy="155.737" r="1.73745" transform="rotate(-180 1387.95 155.737)" fill="#5185EA"/>
<circle cx="1369.88" cy="155.737" r="1.73745" transform="rotate(-180 1369.88 155.737)" fill="#5185EA"/>
<circle cx="1351.81" cy="155.737" r="1.73745" transform="rotate(-180 1351.81 155.737)" fill="#5185EA"/>
<circle cx="1333.74" cy="155.737" r="1.73745" transform="rotate(-180 1333.74 155.737)" fill="#5185EA"/>
<circle cx="47.5" cy="185.5" r="96.5" fill="#FFDEDE"/>
<rect x="72.8086" y="206" width="110.384" height="114.094" rx="14" transform="rotate(60 72.8086 206)" fill="#FFF6C5"/>
</g>
<defs>
<clipPath id="clip0">
<rect width="1440" height="1755" fill="white"/>
</clipPath>
</defs>
</svg>
