<?xml version="1.0" encoding="UTF-8" standalone="no"?>
<svg
   xmlns:dc="http://purl.org/dc/elements/1.1/"
   xmlns:cc="http://creativecommons.org/ns#"
   xmlns:rdf="http://www.w3.org/1999/02/22-rdf-syntax-ns#"
   xmlns:svg="http://www.w3.org/2000/svg"
   xmlns="http://www.w3.org/2000/svg"
   xmlns:sodipodi="http://sodipodi.sourceforge.net/DTD/sodipodi-0.dtd"
   xmlns:inkscape="http://www.inkscape.org/namespaces/inkscape"
   width="1582"
   height="784"
   viewBox="0 0 1582 784"
   fill="none"
   version="1.1"
   id="svg13"
   sodipodi:docname="logo.svg"
   inkscape:version="0.92.3 (2405546, 2018-03-11)">
  <metadata
     id="metadata17">
    <rdf:RDF>
      <cc:Work
         rdf:about="">
        <dc:format>image/svg+xml</dc:format>
        <dc:type
           rdf:resource="http://purl.org/dc/dcmitype/StillImage" />
      </cc:Work>
    </rdf:RDF>
  </metadata>
  <sodipodi:namedview
     pagecolor="#ffffff"
     bordercolor="#666666"
     borderopacity="1"
     objecttolerance="10"
     gridtolerance="10"
     guidetolerance="10"
     inkscape:pageopacity="0"
     inkscape:pageshadow="2"
     inkscape:window-width="1920"
     inkscape:window-height="1029"
     id="namedview15"
     showgrid="false"
     inkscape:zoom="0.36788875"
     inkscape:cx="1236.7869"
     inkscape:cy="609.45704"
     inkscape:window-x="0"
     inkscape:window-y="25"
     inkscape:window-maximized="1"
     inkscape:current-layer="g6" />
  <g
     clip-path="url(#clip0)"
     id="g6"
     transform="matrix(1.4135099,0,0,1.4135099,-345.90089,-170.07505)"
     style="stroke-width:0.70745873">
    <path
       d="m 551.912,379.776 c 2.496,0 4.416,1.152 5.76,3.456 1.536,2.304 2.304,5.472 2.304,9.504 0,7.488 -1.824,13.44 -5.472,17.856 -10.752,12.864 -21.216,21.888 -31.392,27.072 -9.984,5.184 -22.08,7.776 -36.288,7.776 -9.984,0 -19.2,-1.248 -27.648,-3.744 -8.448,-2.496 -18.72,-6.24 -30.816,-11.232 -10.944,-4.8 -21.504,-8.736 -31.68,-11.808 -9.792,17.856 -24.48,26.784 -44.064,26.784 -10.752,0 -19.296,-2.4 -25.632,-7.2 -6.528,-4.992 -9.792,-11.328 -9.792,-19.008 0,-9.408 4.512,-17.184 13.536,-23.328 9.024,-6.336 21.024,-9.504 36,-9.504 h 3.744 l 5.184,-83.808 c 1.152,-19.2 4.608,-35.04 10.368,-47.52 5.76,-12.48 13.728,-23.136 23.904,-31.968 8.832,-7.68 18.912,-13.44 30.24,-17.28 11.328,-4.032 23.328,-6.048 36,-6.048 20.736,0 36.672,5.376 47.808,16.128 11.136,10.752 16.704,24.768 16.704,42.048 0,11.712 -2.112,21.216 -6.336,28.512 -4.224,7.104 -10.08,10.656 -17.568,10.656 -5.376,0 -9.6,-1.248 -12.672,-3.744 -3.072,-2.688 -4.608,-6.432 -4.608,-11.232 0,-1.728 0.384,-4.896 1.152,-9.504 1.152,-5.376 1.728,-10.176 1.728,-14.4 0,-8.064 -2.4,-14.4 -7.2,-19.008 -4.608,-4.8 -11.712,-7.2 -21.312,-7.2 -16.896,0 -29.952,5.568 -39.168,16.704 -9.216,10.944 -15.072,28.224 -17.568,51.84 l -6.624,65.376 c -0.96,9.216 -2.208,17.184 -3.744,23.904 12.288,2.112 27.648,5.472 46.08,10.08 10.752,2.688 19.008,4.608 24.768,5.76 5.76,1.152 10.848,1.728 15.264,1.728 11.136,0 20.64,-1.824 28.512,-5.472 8.064,-3.84 15.648,-9.888 22.752,-18.144 2.304,-2.688 4.896,-4.032 7.776,-4.032 z m 154.636,-24.192 c 2.496,0 4.416,1.248 5.76,3.744 1.344,2.496 2.016,5.664 2.016,9.504 0,9.216 -2.784,14.688 -8.352,16.416 -11.52,4.032 -24.192,6.336 -38.016,6.912 -3.648,16.128 -10.848,29.088 -21.6,38.88 -10.752,9.6 -22.944,14.4 -36.576,14.4 -11.52,0 -21.408,-2.784 -29.664,-8.352 -8.064,-5.568 -14.208,-12.96 -18.432,-22.176 -4.224,-9.216 -6.336,-19.2 -6.336,-29.952 0,-14.592 2.784,-27.552 8.352,-38.88 5.568,-11.52 13.248,-20.448 23.04,-26.784 9.792,-6.528 20.64,-9.792 32.544,-9.792 14.592,0 26.304,5.088 35.136,15.264 9.024,9.984 14.304,22.368 15.84,37.152 9.024,-0.576 19.776,-2.496 32.256,-5.76 1.536,-0.384 2.88,-0.576 4.032,-0.576 z m -94.464,59.328 c 6.144,0 11.424,-2.496 15.84,-7.488 4.608,-4.992 7.68,-12.192 9.216,-21.6 -5.952,-4.032 -10.56,-9.312 -13.824,-15.84 -3.072,-6.528 -4.608,-13.44 -4.608,-20.736 0,-3.072 0.288,-6.144 0.864,-9.216 h -1.44 c -7.68,0 -14.112,3.744 -19.296,11.232 -4.992,7.296 -7.488,17.664 -7.488,31.104 0,10.56 2.016,18.624 6.048,24.192 4.224,5.568 9.12,8.352 14.688,8.352 z m 224.401,-59.328 c 2.496,0 4.416,1.248 5.76,3.744 1.344,2.496 2.016,5.664 2.016,9.504 0,9.216 -2.784,14.688 -8.352,16.416 -11.52,4.032 -24.192,6.336 -38.016,6.912 -3.648,16.128 -10.848,29.088 -21.6,38.88 -10.752,9.6 -22.944,14.4 -36.576,14.4 -11.52,0 -21.408,-2.784 -29.664,-8.352 -8.064,-5.568 -14.208,-12.96 -18.432,-22.176 -4.224,-9.216 -6.336,-19.2 -6.336,-29.952 0,-14.592 2.784,-27.552 8.352,-38.88 5.568,-11.52 13.248,-20.448 23.04,-26.784 9.792,-6.528 20.64,-9.792 32.544,-9.792 14.592,0 26.304,5.088 35.136,15.264 9.024,9.984 14.304,22.368 15.84,37.152 9.024,-0.576 19.776,-2.496 32.256,-5.76 1.536,-0.384 2.88,-0.576 4.032,-0.576 z m -94.464,59.328 c 6.144,0 11.424,-2.496 15.84,-7.488 4.608,-4.992 7.68,-12.192 9.216,-21.6 -5.952,-4.032 -10.56,-9.312 -13.824,-15.84 -3.072,-6.528 -4.608,-13.44 -4.608,-20.736 0,-3.072 0.288,-6.144 0.864,-9.216 h -1.44 c -7.68,0 -14.112,3.744 -19.296,11.232 -4.992,7.296 -7.488,17.664 -7.488,31.104 0,10.56 2.016,18.624 6.048,24.192 4.224,5.568 9.12,8.352 14.688,8.352 z m 231.314,-35.136 c 2.496,0 4.416,1.152 5.76,3.456 1.536,2.304 2.304,5.472 2.304,9.504 0,7.68 -1.824,13.632 -5.472,17.856 -8.256,10.176 -17.184,18.528 -26.784,25.056 -9.408,6.528 -20.16,9.792 -32.256,9.792 -10.176,0 -18.432,-3.648 -24.768,-10.944 -10.944,7.104 -22.368,10.752 -34.272,10.944 -2.496,37.056 -8.16,67.968 -16.992,92.736 -8.832,24.96 -21.792,37.44 -38.88,37.44 -10.368,0 -18.048,-3.744 -23.04,-11.232 -4.992,-7.488 -7.488,-17.856 -7.488,-31.104 0,-18.816 4.32,-40.8 12.96,-65.952 8.64,-24.96 21.984,-52.512 40.032,-82.656 0,-28.032 -0.192,-47.52 -0.576,-58.464 -0.192,-5.568 2.016,-9.984 6.624,-13.248 4.608,-3.264 10.368,-4.896 17.28,-4.896 4.032,0 6.912,0.864 8.64,2.592 1.92,1.536 2.976,4.704 3.168,9.504 0,4.8 0.096,8.352 0.288,10.656 6.144,-7.68 12.192,-13.152 18.144,-16.416 5.952,-3.456 12.288,-5.184 19.008,-5.184 10.752,0 19.488,4.32 26.208,12.96 6.912,8.64 10.368,19.968 10.368,33.984 0,10.176 -1.632,20.064 -4.896,29.664 -3.264,9.6 -7.776,18.336 -13.536,26.208 4.032,1.152 7.392,1.728 10.08,1.728 6.336,0 12.384,-2.304 18.144,-6.912 5.76,-4.608 13.152,-12.288 22.176,-23.04 2.304,-2.688 4.896,-4.032 7.776,-4.032 z m -114.048,38.016 c 6.912,-1.536 13.248,-5.28 19.008,-11.232 5.952,-6.144 10.656,-13.632 14.112,-22.464 3.456,-9.024 5.184,-18.432 5.184,-28.224 0,-5.76 -1.152,-10.08 -3.456,-12.96 -2.304,-3.072 -5.376,-4.608 -9.216,-4.608 -6.912,0 -15.264,7.296 -25.056,21.888 -0.192,8.448 -0.288,20.832 -0.288,37.152 0,8.832 -0.096,15.648 -0.288,20.448 z m -55.008,129.6 c 5.184,0 9.504,-11.328 12.96,-33.984 3.456,-22.464 5.664,-50.496 6.624,-84.096 -8.256,19.2 -14.784,37.536 -19.584,55.008 -4.8,17.472 -7.2,32.16 -7.2,44.064 0,6.144 0.768,10.848 2.304,14.112 1.344,3.264 2.976,4.896 4.896,4.896 z M 995.927,290.784 c -8.064,0 -14.112,-1.824 -18.144,-5.472 -4.032,-3.84 -6.048,-9.12 -6.048,-15.84 0,-6.72 2.592,-12.288 7.776,-16.704 5.376,-4.608 12,-6.912 19.872,-6.912 7.107,0 12.867,1.728 17.277,5.184 4.42,3.456 6.63,8.352 6.63,14.688 0,7.68 -2.5,13.824 -7.49,18.432 -4.99,4.416 -11.62,6.624 -19.873,6.624 z m -2.304,154.656 c -12.48,0 -21.6,-4.416 -27.36,-13.248 -5.568,-8.832 -8.352,-20.544 -8.352,-35.136 0,-8.64 1.056,-19.68 3.168,-33.12 2.304,-13.632 5.184,-26.304 8.64,-38.016 1.728,-6.144 4.032,-10.368 6.912,-12.672 2.88,-2.304 7.488,-3.456 13.824,-3.456 9.795,0 14.685,3.264 14.685,9.792 0,4.8 -1.82,15.936 -5.469,33.408 -4.608,21.12 -6.912,35.424 -6.912,42.912 0,5.76 0.768,10.176 2.304,13.248 1.536,3.072 4.128,4.608 7.777,4.608 3.46,0 7.78,-2.4 12.96,-7.2 5.18,-4.8 12.1,-12.384 20.74,-22.752 2.3,-2.688 4.89,-4.032 7.77,-4.032 2.5,0 4.42,1.152 5.76,3.456 1.54,2.304 2.31,5.472 2.31,9.504 0,7.68 -1.83,13.632 -5.48,17.856 -19,23.232 -36.76,34.848 -53.277,34.848 z m 138.557,-57.024 c 2.49,0 4.41,1.152 5.76,3.456 1.53,2.304 2.3,5.472 2.3,9.504 0,6.912 -1.63,12.864 -4.89,17.856 -5.38,8.256 -12.48,14.688 -21.32,19.296 -8.64,4.608 -19,6.912 -31.1,6.912 -18.43,0 -32.74,-5.472 -42.91,-16.416 -10.18,-11.136 -15.27,-26.112 -15.27,-44.928 0,-13.248 2.79,-25.536 8.36,-36.864 5.56,-11.52 13.24,-20.64 23.04,-27.36 9.98,-6.72 21.21,-10.08 33.69,-10.08 11.14,0 20.07,3.36 26.79,10.08 6.72,6.528 10.08,15.456 10.08,26.784 0,13.248 -4.8,24.672 -14.4,34.272 -9.41,9.408 -25.54,16.896 -48.39,22.464 4.61,8.832 12.39,13.248 23.33,13.248 7.87,0 14.3,-1.824 19.3,-5.472 5.18,-3.648 11.13,-9.792 17.85,-18.432 2.31,-2.88 4.9,-4.32 7.78,-4.32 z m -47.23,-50.4 c -7.11,0 -13.16,4.128 -18.15,12.384 -4.8,8.256 -7.2,18.24 -7.2,29.952 v 0.576 c 11.33,-2.688 20.26,-6.72 26.79,-12.096 6.52,-5.376 9.79,-11.616 9.79,-18.72 0,-3.648 -1.06,-6.528 -3.17,-8.64 -1.92,-2.304 -4.61,-3.456 -8.06,-3.456 z"
       id="path2"
       inkscape:connector-curvature="0"
       style="fill:#ffc700;stroke-width:0.57119298" />
    <path
       d="m 921.91,547.18 h 34.746 L 953.902,563 h -54.785 l 14.766,-85.312 H 933.98 Z M 998.93,563 c -0.546,-1.523 -0.82,-3.438 -0.82,-5.742 -4.336,4.765 -9.512,7.07 -15.527,6.914 -5.508,-0.078 -10.078,-1.914 -13.711,-5.508 -3.633,-3.594 -5.332,-7.949 -5.098,-13.066 0.196,-6.875 3.067,-12.149 8.613,-15.821 5.547,-3.711 13.125,-5.566 22.735,-5.566 l 6.448,0.117 0.7,-3.574 0.23,-3.106 c -0.15,-3.554 -1.93,-5.39 -5.327,-5.507 -4.219,-0.079 -6.817,2.246 -7.793,6.972 l -19.336,0.059 c 0.195,-4.258 1.582,-7.949 4.16,-11.074 2.578,-3.164 6.074,-5.586 10.488,-7.266 4.453,-1.719 9.18,-2.52 14.18,-2.402 4.808,0.117 9.008,1.132 12.598,3.047 3.63,1.875 6.35,4.511 8.14,7.91 1.8,3.359 2.48,7.246 2.05,11.66 l -4.74,29.824 -0.29,3.633 c -0.16,2.891 0.21,5.351 1.11,7.383 l -0.06,1.113 z m -11.015,-12.773 c 3.945,0.156 7.402,-1.582 10.371,-5.215 l 1.934,-10.196 -4.981,-0.058 c -3.086,0.078 -5.742,0.996 -7.969,2.754 -2.226,1.718 -3.535,4.082 -3.925,7.09 -0.196,1.601 0.097,2.929 0.878,3.984 0.821,1.016 2.051,1.562 3.692,1.641 z m 78.015,5.859 c -4.73,5.586 -10.43,8.301 -17.11,8.144 -6.21,-0.078 -10.9,-2.246 -14.06,-6.503 -3.13,-4.258 -4.34,-9.961 -3.63,-17.11 l 6.85,-41.015 h 19.28 l -6.97,41.25 c -0.12,1.132 -0.12,2.168 0,3.105 0.27,3.203 2.16,4.863 5.68,4.981 4.06,0.156 7.52,-1.446 10.37,-4.805 l 7.85,-44.531 h 19.4 L 1082.57,563 h -17.93 z m 56.81,-56.543 -1.35,7.617 c 5.08,-6.015 11.19,-8.945 18.34,-8.789 5.86,0.117 10.21,2.305 13.07,6.563 2.89,4.218 3.94,10.273 3.16,18.164 L 1149.28,563 h -19.34 l 6.74,-40.02 c 0.16,-1.367 0.2,-2.617 0.12,-3.75 -0.27,-3.71 -2.46,-5.566 -6.56,-5.566 -3.4,-0.078 -6.51,1.426 -9.32,4.512 L 1113.01,563 h -19.28 l 11.02,-63.398 z m 41.98,31.641 c 1.21,-10 4.26,-18.008 9.14,-24.024 4.88,-6.015 11.25,-8.926 19.1,-8.73 5.39,0.156 9.86,2.422 13.42,6.797 L 1212.53,473 h 19.34 l -15.59,90 h -17.17 l 0.82,-6.855 c -4.72,5.546 -9.98,8.242 -15.76,8.085 -6.09,-0.078 -10.88,-2.324 -14.35,-6.738 -3.44,-4.453 -5.28,-10.41 -5.51,-17.871 -0.08,-2.461 0,-4.863 0.23,-7.207 z m 19.22,1.289 c -0.32,2.5 -0.45,4.687 -0.41,6.562 0,6.485 2.18,9.785 6.56,9.903 3.79,0.117 7.17,-1.7 10.14,-5.45 l 4.33,-24.316 c -1.29,-3.594 -3.87,-5.449 -7.73,-5.567 -3.6,-0.078 -6.51,1.485 -8.73,4.688 -2.19,3.164 -3.58,7.891 -4.16,14.18 z m 90.67,-15 c -2.07,-0.313 -4.06,-0.508 -5.98,-0.586 -5.78,-0.157 -10.19,1.836 -13.24,5.976 L 1248.24,563 h -19.28 l 11.02,-63.398 17.99,-0.059 -1.47,8.32 c 4.14,-6.406 9.03,-9.609 14.65,-9.609 1.6,0 3.6,0.273 5.98,0.82 z m 30.38,17.636 16.41,-35.507 h 21.26 l -37.14,72.89 c -2.78,5.742 -5.98,9.883 -9.61,12.422 -3.6,2.578 -7.89,3.867 -12.89,3.867 -2.23,0 -5.06,-0.429 -8.5,-1.289 l 1.47,-14.121 h 2.22 c 2.38,0 4.47,-0.391 6.27,-1.172 1.8,-0.742 3.3,-2.207 4.51,-4.394 l 2.76,-5.274 -10.14,-62.929 h 19.92 z"
       id="path4"
       inkscape:connector-curvature="0"
       style="fill:#0085ff;stroke-width:0.57119298" />
  </g>
  <defs
     id="defs11">
    <clipPath
       id="clip0">
      <rect
         width="1582"
         height="784"
         fill="white"
         id="rect8" />
    </clipPath>
  </defs>
</svg>
